# xmcd
#
# Track frame offsets:
#	150
#	16770
#	32915
#	47740
#	61075
#	80365
#	100652
#	119277
#	136210
#	152150
#	172037
#	187442
#	203762
#	216747
#	236007
#
# Disc length: 3386 seconds
# Revision: 2
# Processed by: cddbd v1.5.2PL0 Copyright (c) Steve Scherf et al.
# Submitted via: dBpowerAMP V12.0
#
DISCID=d30d380f
DTITLE=Rusty Zinn - Confessin'
DYEAR=1999
DGENRE=Blues
TTITLE0=Best of Luck Baby
TTITLE1=Mimi
TTITLE2=Don't Let it be in Vain
TTITLE3=Messin' With my Bread
TTITLE4=You Were Wrong
TTITLE5=Confessin' About my Baby
TTITLE6=Sad Old Lonesome Day
TTITLE7=Someday
TTITLE8=Lucille
TTITLE9=Hey Little Girl
TTITLE10=Your Turn to Cry
TTITLE11=Big Road Blues
TTITLE12=Think
TTITLE13=If You Ever Get Lonesome
TTITLE14=Come Get These Blues up Off me
EXTD=
EXTT0=
EXTT1=
EXTT2=
EXTT3=
EXTT4=
EXTT5=
EXTT6=
EXTT7=
EXTT8=
EXTT9=
EXTT10=
EXTT11=
EXTT12=
EXTT13=
EXTT14=
PLAYORDER=
